<svg xmlns="http://www.w3.org/2000/svg" version="1.1" xmlns:xlink="http://www.w3.org/1999/xlink" xmlns:svgjs="http://svgjs.dev/svgjs" width="164" height="176"><svg width="164" height="176" viewBox="0 0 164 176" fill="none" xmlns="http://www.w3.org/2000/svg">
<circle cx="81.9999" cy="84.6761" r="81.0243" fill="#FF3D00"></circle>
<path d="M36.0514 115.019C34.9211 114.992 34.0117 114.583 33.3233 113.789C32.6348 112.996 32.3134 111.61 32.3592 109.632C32.3935 108.149 32.9082 105.758 33.9033 102.459C34.9706 99.0906 36.369 95.1648 38.0983 90.6813C39.8982 86.1994 41.8804 81.4743 44.045 76.506C46.2819 71.4688 48.5885 66.4685 50.965 61.5051C53.3415 56.5418 55.6737 51.9661 57.9616 47.7782C60.2511 43.5197 62.3486 39.9281 64.2538 37.0036C66.1591 34.0791 67.7582 32.1724 69.051 31.2834C70.5589 30.2581 71.9487 29.7601 73.2203 29.7895C73.9267 29.8058 74.6315 29.8928 75.3347 30.0504C76.0378 30.208 76.6326 30.4691 77.1189 30.8338C78.3725 31.6403 79.4274 33.3963 80.2837 36.1019C81.2123 38.7386 81.9857 41.9724 82.6039 45.8034C83.2238 49.5638 83.6959 53.6035 84.0201 57.9224C84.4166 62.1724 84.7433 66.3854 85.0002 70.5615C87.126 70.3279 88.8969 70.1568 90.313 70.0482C91.7292 69.9396 92.7551 69.8926 93.3909 69.9073C95.7927 69.9628 97.3042 70.3158 97.9253 70.9663C98.5463 71.6168 98.8824 72.3667 98.9335 73.216C99.0453 74.4908 98.666 75.613 97.7954 76.5824C96.9249 77.5517 95.7068 78.2657 94.1412 78.7243C93.6435 78.8542 92.5781 79.0769 90.9452 79.3926C89.3845 79.6392 87.5043 79.9491 85.3046 80.3224C85.3263 82.4433 85.3159 84.4221 85.2734 86.2588C85.3032 88.0265 85.3034 89.5461 85.2741 90.8176C85.1254 97.2461 84.6251 102.076 83.7729 105.308C82.9223 108.469 81.9188 110.601 80.7624 111.705C79.606 112.809 78.498 113.349 77.4384 113.325C76.1668 113.295 75.2919 112.922 74.8138 112.204C74.3372 111.415 74.1153 110.315 74.148 108.902L74.3219 101.379C74.3823 98.7648 74.4156 95.797 74.4217 92.4751C74.5001 89.0843 74.5472 85.5161 74.5631 81.7704C70.3789 82.3805 66.1248 82.9536 61.801 83.4897C57.5477 84.0275 53.8613 84.5078 50.7416 84.9304C49.0944 88.9211 47.6681 92.5281 46.4627 95.7516C45.2589 98.9043 44.4255 101.324 43.9624 103.009C42.8212 106.517 41.8062 109.144 40.9177 110.89C40.0308 112.566 39.1923 113.678 38.4022 114.225C37.6827 114.774 36.8991 115.038 36.0514 115.019ZM54.5623 75.5829C58.2553 74.8201 61.7701 74.1239 65.1066 73.4942C68.5138 72.8662 71.6359 72.3376 74.473 71.9084C74.4081 65.5457 74.16 59.4615 73.7288 53.6558C73.3698 47.781 72.735 43.1368 71.8244 39.7231C70.4283 42.0233 68.767 45.0948 66.8405 48.9377C64.914 52.7805 62.8717 57.0448 60.7137 61.7305C58.6279 66.3472 56.5775 70.9646 54.5623 75.5829Z" fill="white"></path>
<path d="M75.8924 79.8684C73.1698 79.8684 71.244 79.7356 70.1151 79.4699C68.9862 79.1379 68.289 78.7063 68.0233 78.175C67.8241 77.6438 67.7245 77.1125 67.7245 76.5813C67.7245 75.8508 68.0897 75.1868 68.8202 74.5891C69.6171 73.9251 71.2108 73.3938 73.6014 72.9954C76.6561 72.3313 80.242 71.6673 84.3591 71.0032C88.5426 70.2728 92.9918 69.6087 97.7066 69.0111C102.421 68.347 107.136 67.7494 111.851 67.2181C116.632 66.6869 121.181 66.2884 125.497 66.0228C129.88 65.6908 133.765 65.5248 137.151 65.5248C141.667 65.5248 144.722 65.9232 146.315 66.7201C147.976 67.5169 148.806 68.3802 148.806 69.3099C148.806 70.1732 148.341 70.97 147.411 71.7005C146.548 72.4309 145.054 72.7962 142.929 72.7962C142.066 72.7962 140.073 72.9954 136.952 73.3938C133.831 73.7259 130.013 74.1907 125.497 74.7883C121.048 75.3196 116.333 75.9172 111.353 76.5813C111.021 78.8391 110.523 81.8273 109.859 85.546C109.195 89.1983 108.431 93.2159 107.568 97.5986C106.771 101.981 105.941 106.397 105.078 110.847C104.281 115.229 103.517 119.313 102.787 123.098C102.123 126.883 101.558 130.005 101.093 132.462C100.628 134.919 100.363 136.379 100.296 136.844C100.031 138.903 99.4332 140.463 98.5035 141.526C97.6402 142.522 96.6773 143.02 95.6148 143.02C94.3531 143.02 93.2906 142.489 92.4274 141.426C91.6305 140.297 91.2321 138.338 91.2321 135.549C91.2321 134.62 91.4313 132.827 91.8297 130.171C92.2282 127.448 92.7594 124.227 93.4235 120.509C94.0875 116.79 94.818 112.839 95.6148 108.655C96.4117 104.472 97.2086 100.388 98.0054 96.4033C98.8023 92.3526 99.5328 88.7003 100.197 85.4464C100.861 82.1261 101.359 79.5363 101.691 77.677C96.4449 78.2746 91.4977 78.8059 86.8493 79.2707C82.2673 79.6691 78.615 79.8684 75.8924 79.8684Z" fill="white"></path>
</svg><style>@media (prefers-color-scheme: light) { :root { filter: none; } }
@media (prefers-color-scheme: dark) { :root { filter: none; } }
</style></svg>